:SAMPLES-PER-SECOND 30
:FULLY-SPECIFIED
:DEGREES
337
root  -54.9609 35.0803 30.5294 -173.6 46.4692 179.194
RightUpLeg  -6.29737 -8.05201 -1.79244
RightLeg  7.23119 -3.69199 -0.22723
RightFoot  2.70127 -0.0498137 -0.00701388
RightToes  -20.3585 -0.0818391 -0.178262
Spine  -1.75825 -0.118002 -0.32955
Spine1  -3.42783 -0.151485 0.00941463
HEad  -59.5541 -8.60478 3.97544
LeftShoulder1  -1.94126e-019 -3.10601e-018 -2.51263e-017
LeftArm  -2.49655 13.9291 -65.7675
LeftForeArm  28.8793 -52.1783 -12.2191
LeftHand  -0.304843 -2.88666 4.5055
RightShoulder  -4.96962e-017 0 -2.36833e-017
RightArm  -4.99224 -12.7615 53.391
RightForeArm  43.5155 51.6252 10.7694
RightHand  0.0804914 1.12041 1.33116
LeftUpLeg  -6.01097 -2.45021 0.275664
LeftLeg  2.97632 12.718 -0.155733
LeftFoot  7.68852 -0.116984 1.89224
LeftToes  -19.0476 1.48321e-006 1.01846e-007
338
root  -54.9518 35.0634 30.4931 -173.417 47.1139 179.107
RightUpLeg  -6.78173 -7.54326 -1.8702
RightLeg  7.60878 -3.59796 -0.245222
RightFoot  2.54307 -0.0507441 0.00651806
RightToes  -20.5996 -0.081853 -0.178582
Spine  -1.68956 -0.205254 -0.144973
Spine1  -3.35456 -0.340341 0.445779
HEad  -59.4001 -8.43502 3.50744
LeftShoulder1  -1.94126e-019 -3.10601e-018 -2.51263e-017
LeftArm  -3.46655 17.8846 -69.1341
LeftForeArm  27.7369 -41.9241 -8.22487
LeftHand  -0.183102 -2.06006 3.03881
RightShoulder  -4.96962e-017 0 -2.36833e-017
RightArm  0.901062 -15.5906 56.55
RightForeArm  52.5416 42.6803 6.93372
RightHand  0.2128 2.22036 3.06571
LeftUpLeg  -5.81655 -1.93438 0.149476
LeftLeg  2.34585 12.8395 -0.297252
LeftFoot  7.80794 -0.120232 1.93331
LeftToes  -18.9672 1.48321e-006 1.01846e-007
339
root  -54.9331 35.0247 30.4565 -173.219 47.977 178.978
RightUpLeg  -7.76028 -7.78612 -1.97772
RightLeg  8.82835 -2.53894 -0.227223
RightFoot  1.91516 -0.0555025 0.0751075
RightToes  -20.4374 -0.0818697 -0.178908
Spine  -1.58918 -0.153635 -0.0149659
Spine1  -3.19436 -0.24126 0.689641
HEad  -60.0445 -8.26609 4.14997
LeftShoulder1  -1.94126e-019 -3.10601e-018 -2.51263e-017
LeftArm  -6.06339 21.1489 -72.473
LeftForeArm  28.789 -31.245 -5.20314
LeftHand  -0.231869 -1.56987 4.02812
RightShoulder  -4.96962e-017 0 -2.36833e-017
RightArm  3.71191 -18.2947 60.5917
RightForeArm  60.7846 31.8152 3.7697
RightHand  0.192679 4.06662 2.09231
LeftUpLeg  -5.91144 -1.04166 -0.00743878
LeftLeg  2.2834 12.7842 -0.309812
LeftFoot  7.68078 -0.116173 1.89204
LeftToes  -19.3245 1.48321e-006 1.01846e-007
340
root  -54.9163 34.9818 30.4407 -172.633 48.9 179.05
RightUpLeg  -8.61836 -5.8074 -1.91355
RightLeg  9.3152 -3.57538 -0.350905
RightFoot  1.72583 -0.0540455 0.0552403
RightToes  -20.527 -0.0818889 -0.179238
Spine  -1.62918 -0.0502217 0.099951
Spine1  -3.2887 -0.0491734 0.907852
HEad  -60.47 -8.07696 5.50442
LeftShoulder1  -1.94126e-019 -3.10601e-018 -2.51263e-017
LeftArm  -12.1744 24.3095 -75.5126
LeftForeArm  30.3524 -20.8308 -3.28218
LeftHand  -0.288532 -1.40242 5.08554
RightShoulder  -4.96962e-017 0 -2.36833e-017
RightArm  0.402899 -21.1725 64.9746
RightForeArm  64.6187 19.8836 1.23993
RightHand  -0.0224759 4.3274 -0.549513
LeftUpLeg  -6.50646 -0.0944384 0.000149284
LeftLeg  2.73604 12.7531 -0.209174
LeftFoot  7.27059 -0.10343 1.78941
LeftToes  -19.4387 1.48321e-006 1.01846e-007
341
root  -54.8991 34.8551 30.4196 -172.217 49.5558 179.056
RightUpLeg  -10.4407 -6.32013 -1.9055
RightLeg  12.0333 -2.43351 -0.356145
RightFoot  0.416821 -0.0589239 0.126267
RightToes  -20.5465 -0.0819106 -0.179569
Spine  -1.77241 0.0116714 0.299942
Spine1  -3.57795 0.0465226 1.22139
HEad  -60.1251 -7.68289 6.83969
LeftShoulder1  -1.94126e-019 -3.10601e-018 -2.51263e-017
LeftArm  -17.9581 28.1393 -77.942
LeftForeArm  27.8926 -12.9723 -2.18109
LeftHand  -0.297522 0.10208 6.57746
RightShoulder  -4.96962e-017 0 -2.36833e-017
RightArm  -7.42122 -25.2608 67.6767
RightForeArm  62.9259 15.0306 1.01899
RightHand  0.0209674 1.80346 0.180308
LeftUpLeg  -7.97984 0.209773 -0.0374749
LeftLeg  5.22187 13.0812 0.347924
LeftFoot  5.93098 -0.0693219 1.49965
LeftToes  -19.4453 1.48321e-006 1.01846e-007
342
root  -54.9017 34.7103 30.3859 -171.916 49.8718 179.108
RightUpLeg  -11.8198 -6.23998 -1.91215
RightLeg  14.2755 -2.22769 -0.416091
RightFoot  -0.698312 -0.0620938 0.173252
RightToes  -20.9329 -0.0819342 -0.179898
Spine  -2.02399 -0.173975 0.472536
Spine1  -3.99726 -0.345837 1.56875
HEad  -59.5593 -5.99794 7.44615
LeftShoulder1  -1.94126e-019 -3.10601e-018 -2.51263e-017
LeftArm  -23.8599 33.0021 -80.0078
LeftForeArm  27.9345 -10.6714 -1.86611
LeftHand  -0.26662 0.420404 6.23869
RightShoulder  -4.96962e-017 0 -2.36833e-017
RightArm  -16.0072 -29.2016 69.1842
RightForeArm  63.3046 12.602 1.40029
RightHand  -0.0499406 1.57639 -0.978007
LeftUpLeg  -9.57035 0.270147 -0.0597048
LeftLeg  8.15812 13.3965 1.03798
LeftFoot  4.38512 -0.0383551 1.16333
LeftToes  -19.1161 1.48321e-006 1.01846e-007
343
root  -54.9039 34.6093 30.3539 -171.768 50.0211 179.147
RightUpLeg  -12.6443 -6.1535 -1.9303
RightLeg  15.7428 -2.16761 -0.463042
RightFoot  -1.43474 -0.0640647 0.203479
RightToes  -21.0608 -0.0819594 -0.180221
Spine  -2.15428 -0.341829 0.599142
Spine1  -4.11209 -0.668255 1.81798
HEad  -59.936 -3.62592 7.51603
LeftShoulder1  -1.94126e-019 -3.10601e-018 -2.51263e-017
LeftArm  -24.7248 37.4996 -81.3168
LeftForeArm  28.1249 -10.1576 -1.78577
LeftHand  -0.248389 -0.0821926 5.32377
RightShoulder  -4.96962e-017 0 -2.36833e-017
RightArm  -21.551 -32.5188 69.889
RightForeArm  66.2468 11.7349 1.48892
RightHand  -0.0608629 2.83833 -1.07765
LeftUpLeg  -10.5899 0.585478 -0.0953292
LeftLeg  10.1365 13.2405 1.48293
LeftFoot  3.33661 -0.0216696 0.905551
LeftToes  -19.015 1.48321e-006 1.01846e-007
344
root  -54.9089 34.5612 30.3071 -171.8 50.1522 179.123
RightUpLeg  -12.9666 -6.17492 -2.02348
RightLeg  16.4746 -2.01207 -0.457057
RightFoot  -1.84989 -0.0648661 0.21738
RightToes  -20.8641 -0.0819861 -0.180535
Spine  -2.08895 -0.498014 0.738083
Spine1  -3.84291 -0.921369 2.07226
HEad  -60.9184 -0.834308 7.73474
LeftShoulder1  -1.94126e-019 -3.10601e-018 -2.51263e-017
LeftArm  -24.9726 40.7464 -82.6503
LeftForeArm  29.6525 -9.9038 -1.74325
LeftHand  -0.243621 -0.7413 4.71941
RightShoulder  -4.96962e-017 0 -2.36833e-017
RightArm  -20.3346 -35.1895 69.4565
RightForeArm  65.6397 12.8726 1.36162
RightHand  0.206927 3.34067 2.50969
LeftUpLeg  -10.9812 0.849209 -0.191185
LeftLeg  11.1054 13.0115 1.67879
LeftFoot  2.80071 -0.0130286 0.773203
LeftToes  -18.9159 1.48321e-006 1.01846e-007
345
root  -54.9377 34.5646 30.277 -172.044 50.5477 179.04
RightUpLeg  -12.9389 -5.76484 -2.18474
RightLeg  16.6474 -2.03823 -0.469518
RightFoot  -1.83463 -0.0647255 0.218206
RightToes  -21.0262 -0.0820139 -0.180837
Spine  -1.97258 -0.425329 0.84481
Spine1  -3.52911 -0.740544 2.25792
HEad  -61.5737 0.950865 7.8488
LeftShoulder1  -1.94126e-019 -3.10601e-018 -2.51263e-017
LeftArm  -23.9234 42.9595 -83.2275
LeftForeArm  31.0098 -9.74625 -1.71769
LeftHand  -0.205862 -1.36874 3.68221
RightShoulder  -4.96962e-017 0 -2.36833e-017
RightArm  -15.7352 -37.3315 67.9682
RightForeArm  62.5141 14.3683 1.1353
RightHand  0.238177 3.87077 2.72009
LeftUpLeg  -10.89 1.0138 -0.32898
LeftLeg  11.3904 13.1644 1.76412
LeftFoot  2.64218 -0.0109905 0.746753
LeftToes  -18.791 1.48321e-006 1.01846e-007
346
root  -54.9776 34.5853 30.2573 -172.4 51.1511 178.858
RightUpLeg  -12.7295 -4.4413 -2.4242
RightLeg  16.4177 -2.73942 -0.619052
RightFoot  -1.5748 -0.0653975 0.231037
RightToes  -21.0909 -0.0820426 -0.181125
Spine  -1.75156 -0.26176 0.829199
Spine1  -3.0515 -0.402599 2.19435
HEad  -62.0127 2.24343 8.12075
LeftShoulder1  -1.94126e-019 -3.10601e-018 -2.51263e-017
LeftArm  -23.0106 43.9137 -83.042
LeftForeArm  31.0125 -9.55233 -1.68577
LeftHand  -0.170588 -1.48752 3.03057
RightShoulder  -4.96962e-017 0 -2.36833e-017
RightArm  -13.0419 -38.1269 66.2961
RightForeArm  60.7962 14.9745 1.05632
RightHand  0.10704 3.77966 1.09445
LeftUpLeg  -10.888 1.78657 -0.546665
LeftLeg  11.887 12.8842 1.83993
LeftFoot  2.45499 -0.00696102 0.691074
LeftToes  -18.7172 1.48321e-006 1.01846e-007
